KRSPY-WB-MinG.ufo
<glyph name="zero" format="2">
  <advance width="5250.399399399399"/>
  <unicode hex="0030"/>
  <outline>
    <contour>
      <point x="199.8108108108108" y="0.0" type="line" identifier="4KX3b3mGg4"/>
      <point x="5050.588588588589" y="0.0" type="line" identifier="V2j8wYP0nr"/>
      <point x="5050.588588588589" y="1600.0" type="line" identifier="NaxGoenf3y"/>
      <point x="199.8108108108108" y="1600.0" type="line" identifier="rx6fJSLiri"/>
    </contour>
    <contour>
      <point x="919.4414414414414" y="515.7657657657658" type="line"/>
      <point x="919.4414414414414" y="1084.2342342342342" type="line"/>
      <point x="4330.957957957959" y="1084.2342342342342" type="line"/>
      <point x="4330.957957957959" y="515.7657657657658" type="line"/>
    </contour>
  </outline>
</glyph>
<glyph name="one" format="2">
  <advance width="4569.6996996996995"/>
  <unicode hex="0031"/>
  <outline>
    <contour>
      <point x="89.0" y="0.0" type="line"/>
      <point x="4369.18018018018" y="0.0" type="line" identifier="CURJAw79Zl"/>
      <point x="4369.18018018018" y="515.7657657657658" type="line" identifier="0DUCJo8xIi"/>
      <point x="2589.051051051051" y="515.7657657657658" type="line" identifier="5nmxQXofSG"/>
      <point x="2589.051051051051" y="1600.0" type="line" identifier="4rjIeWbSbx"/>
      <point x="86.0" y="1600.0" type="line"/>
      <point x="86.0" y="1084.2342342342342" type="line"/>
      <point x="1869.129129129129" y="1084.2342342342342" type="line"/>
      <point x="1869.129129129129" y="515.7657657657658" type="line"/>
      <point x="89.0" y="515.7657657657658" type="line"/>
    </contour>
  </outline>
</glyph>
<glyph name="two" format="2">
  <advance width="5465.288288288288"/>
  <unicode hex="0032"/>
  <outline>
    <contour>
      <point x="217.8108108108108" y="0.0" type="line"/>
      <point x="5247.477477477478" y="0.0" type="line" identifier="pzdvPTirLJ"/>
      <point x="5247.477477477478" y="538.3403403403404" type="line" identifier="91SxUS0iwG"/>
      <point x="4578.144144144144" y="538.3403403403404" type="line" identifier="fP7EN0pUcl"/>
      <point x="4578.144144144144" y="538.3403403403404" type="line" identifier="eb458Bdvng"/>
      <point x="1623.9819819819818" y="538.3403403403404" type="line"/>
      <point x="1623.9819819819818" y="582.3823823823824" type="line" identifier="9fjc25rkUx"/>
      <point x="5243.477477477477" y="682.8448448448448" type="line" identifier="yyb1NCCI5w"/>
      <point x="5243.477477477477" y="1600.0" type="line" identifier="5FogYRSgkk"/>
      <point x="220.8108108108108" y="1600.0" type="line" identifier="svlFvrau4c"/>
      <point x="220.8108108108108" y="992.3673673673673" type="line" identifier="LQ9fBsTy9K"/>
      <point x="890.1441441441441" y="992.3673673673673" type="line" identifier="jS6EyIAKtm"/>
      <point x="890.1441441441441" y="1063.4594594594594" type="line"/>
      <point x="3836.3063063063064" y="1063.4594594594594" type="line" identifier="N6CMAjhNlU"/>
      <point x="3836.3063063063064" y="1016.8228228228228" type="line" identifier="yK1d5IcluK"/>
      <point x="217.8108108108108" y="872.3503503503503" type="line" identifier="teVKnpBcVb"/>
    </contour>
  </outline>
</glyph>
<glyph name="three" format="2">
  <advance width="5465.288288288288"/>
  <unicode hex="0033"/>
  <outline>
    <contour>
      <point x="217.8108108108108" y="0.0" type="line" identifier="O9abUc1nmN"/>
      <point x="5247.477477477478" y="0.0" type="line" identifier="kMJYMTfXCq"/>
      <point x="5247.477477477478" y="889.1901901901902" type="line" identifier="su2XmdS8e8"/>
      <point x="4624.449449449449" y="889.1901901901902" type="line" identifier="JQaOzDQqlF"/>
      <point x="4624.449449449449" y="774.1031031031031" type="line"/>
      <point x="5239.477477477478" y="1089.2042042042042" type="line" identifier="S91TzLL02W"/>
      <point x="5239.477477477478" y="1600.0" type="line" identifier="xg8x2Ki40p"/>
      <point x="240.30630630630628" y="1600.0" type="line" identifier="pE1XSRiy68"/>
      <point x="240.30630630630628" y="1061.6596596596596" type="line" identifier="5lNstGRcSF"/>
      <point x="908.8198198198197" y="1061.6596596596596" type="line" identifier="AcE5xKDZfE"/>
      <point x="908.8198198198197" y="1061.6596596596596" type="line" identifier="7ogBYufWpl"/>
      <point x="4209.423423423424" y="1061.6596596596596" type="line" identifier="RHLvSX2Jv6"/>
      <point x="4209.423423423424" y="1062.986986986987" type="line" identifier="YUjTrmoWd9"/>
      <point x="3946.6136136136133" y="957.7827827827828" type="line"/>
      <point x="3946.6136136136133" y="957.5825825825825" type="line" identifier="iic1IBkDqp"/>
      <point x="1689.4714714714714" y="957.5825825825825" type="line" identifier="lRLJEhXMlO"/>
      <point x="1689.4714714714714" y="641.5175175175176" type="line" identifier="8aKgEELrVU"/>
      <point x="4414.18018018018" y="641.5175175175176" type="line" identifier="Dm8zjmbhNr"/>
      <point x="4414.18018018018" y="538.3403403403404" type="line" identifier="xv9CFHiFgB"/>
      <point x="886.1441441441441" y="538.3403403403404" type="line" identifier="YajKQV3MHP"/>
      <point x="886.1441441441441" y="538.3403403403404" type="line" identifier="36SchVkwze"/>
      <point x="217.8108108108108" y="538.3403403403404" type="line" identifier="tVui9PiOjA"/>
    </contour>
  </outline>
</glyph>
<glyph name="four" format="2">
  <advance width="5480.288288288288"/>
  <unicode hex="0034"/>
  <outline>
    <contour>
      <point x="4000.1801801801803" y="0.0" type="line"/>
      <point x="4832.657657657657" y="0.0" type="line"/>
      <point x="4832.657657657657" y="471.4364364364364" type="line"/>
      <point x="5261.477477477477" y="471.4364364364364" type="line"/>
      <point x="5261.477477477477" y="1002.5775775775776" type="line"/>
      <point x="4832.657657657657" y="1002.5775775775776" type="line"/>
      <point x="4832.657657657657" y="1600.0" type="line"/>
      <point x="4000.1801801801803" y="1600.0" type="line"/>
      <point x="4000.1801801801803" y="1002.5775775775776" type="line"/>
      <point x="1051.1081081081081" y="1002.5775775775776" type="line"/>
      <point x="1051.1081081081081" y="1078.804804804805" type="line"/>
      <point x="1554.108108108108" y="1680.0" type="line"/>
      <point x="720.6306306306307" y="1680.0" type="line"/>
      <point x="219.63063063063063" y="1078.804804804805" type="line"/>
      <point x="219.63063063063063" y="471.4364364364364" type="line"/>
      <point x="4000.1801801801803" y="471.4364364364364" type="line"/>
    </contour>
  </outline>
</glyph>
<glyph name="five" format="2">
  <advance width="5242.399399399399"/>
  <unicode hex="0035"/>
  <outline>
    <contour>
      <point x="201.51951951951955" y="0.0" type="line" identifier="09VlJ0BjUX"/>
      <point x="5042.588588588588" y="0.0" type="line" identifier="EagWihqFM8"/>
      <point x="5042.588588588588" y="844.8888888888889" type="line" identifier="KfNuQA7eZe"/>
      <point x="919.4414414414414" y="880.2522522522523" type="line" identifier="At364YZFEy"/>
      <point x="919.4414414414414" y="1116.5465465465466" type="line" identifier="BcuLfvaQKC"/>
      <point x="5042.588588588588" y="1116.5465465465466" type="line" identifier="3ZUkG35meB"/>
      <point x="5042.588588588588" y="1600.0" type="line" identifier="SaF9ojRFrW"/>
      <point x="199.8108108108108" y="1600.0" type="line" identifier="F4sQEYelA8"/>
      <point x="199.8108108108108" y="623.6696696696697" type="line" identifier="3sQ8t8BZ6b"/>
      <point x="4322.957957957958" y="588.3063063063063" type="line" identifier="yiV6OCBLHg"/>
      <point x="4322.957957957958" y="483.45345345345345" type="line" identifier="9kdl9SYsn8"/>
      <point x="779.6996996996997" y="483.45345345345345" type="line" identifier="yZDWuX8LLe"/>
      <point x="779.6996996996997" y="402.67267267267266" type="line" identifier="jYb9001DTm"/>
      <point x="201.51951951951955" y="402.67267267267266" type="line" identifier="ho4DrS0rdW"/>
    </contour>
  </outline>
</glyph>
<glyph name="six" format="2">
  <advance width="5248.399399399399"/>
  <unicode hex="0036"/>
  <outline>
    <contour>
      <point x="199.81081081081084" y="0.0" type="line" identifier="uiw6aBUf4P"/>
      <point x="5048.588588588588" y="0.0" type="line" identifier="jtYkxiUX6G"/>
      <point x="5048.588588588588" y="929.4414414414415" type="line" identifier="2G5L37c87I"/>
      <point x="919.4414414414415" y="929.4414414414415" type="line"/>
      <point x="919.4414414414415" y="936.8018018018017" type="line"/>
      <point x="1164.3663663663665" y="1100.3903903903904" type="line"/>
      <point x="4469.6996996996995" y="1100.3903903903904" type="line"/>
      <point x="4469.6996996996995" y="1197.3273273273273" type="line"/>
      <point x="5047.588588588588" y="1197.3273273273273" type="line" identifier="Wuidbv6mUe"/>
      <point x="5047.588588588588" y="1600.0" type="line" identifier="oGvEEuxnYv"/>
      <point x="701.5195195195196" y="1600.0" type="line" identifier="xR3pEHbMJx"/>
      <point x="199.81081081081084" y="1209.2252252252251" type="line" identifier="KnMArb0tv8"/>
    </contour>
    <contour>
      <point x="4327.957957957958" y="643.0930930930931" type="line"/>
      <point x="4327.957957957958" y="467.2972972972973" type="line"/>
      <point x="919.4414414414415" y="467.2972972972973" type="line"/>
      <point x="919.4414414414415" y="643.0930930930931" type="line"/>
    </contour>
  </outline>
</glyph>
<glyph name="seven" format="2">
  <advance width="5247.399399399399"/>
  <unicode hex="0037"/>
  <outline>
    <contour>
      <point x="1942.1681681681684" y="0.0" type="line"/>
      <point x="2946.3813813813813" y="0.0" type="line" identifier="PiPrv7Kcoy"/>
      <point x="5047.588588588588" y="1026.7687687687687" type="line" identifier="PkvwNC9Tx1"/>
      <point x="5047.588588588588" y="1600.0" type="line" identifier="tgqM27bPOm"/>
      <point x="199.8108108108108" y="1600.0" type="line" identifier="36ml4xRICt"/>
      <point x="199.8108108108108" y="777.2672672672672" type="line" identifier="aaDZsh5Mah"/>
      <point x="777.6996996996997" y="777.2672672672672" type="line"/>
      <point x="777.6996996996997" y="1084.2342342342342" type="line"/>
      <point x="4044.474474474474" y="1084.2342342342342" type="line"/>
      <point x="4044.474474474474" y="1026.9609609609608" type="line"/>
    </contour>
  </outline>
</glyph>
<glyph name="eight" format="2">
  <advance width="5478.288288288288"/>
  <unicode hex="0038"/>
  <outline>
    <contour>
      <point x="4046.0800800800803" y="619.02002002002" type="line"/>
      <point x="4427.18018018018" y="438.30830830830826" type="line"/>
      <point x="4427.18018018018" y="514.942942942943" type="line"/>
      <point x="1051.1081081081081" y="514.942942942943" type="line"/>
      <point x="1051.1081081081081" y="422.11011011011004" type="line"/>
      <point x="1434.108108108108" y="618.1201201201201" type="line"/>
    </contour>
    <contour>
      <point x="4878.477477477478" y="799.0" type="line"/>
      <point x="4878.477477477478" y="801.0" type="line"/>
      <point x="5256.657657657658" y="1008.9069069069069" type="line"/>
      <point x="5256.657657657658" y="1600.0" type="line"/>
      <point x="221.8108108108108" y="1600.0" type="line"/>
      <point x="221.8108108108108" y="1008.9069069069069" type="line"/>
      <point x="600.6306306306307" y="801.0" type="line"/>
      <point x="600.6306306306307" y="799.0" type="line"/>
      <point x="218.8108108108108" y="589.5915915915916" type="line"/>
      <point x="218.8108108108108" y="0.0" type="line"/>
      <point x="5259.657657657657" y="0.0" type="line"/>
      <point x="5259.657657657657" y="589.5915915915916" type="line"/>
    </contour>
    <contour>
      <point x="1434.108108108108" y="998.9779779779781" type="line"/>
      <point x="1055.0080080080081" y="1187.1871871871872" type="line"/>
      <point x="1054.1081081081081" y="1103.0550550550552" type="line"/>
      <point x="4424.18018018018" y="1103.0550550550552" type="line"/>
      <point x="4423.280280280281" y="1187.1871871871872" type="line"/>
      <point x="4045.1801801801803" y="999.877877877878" type="line"/>
    </contour>
  </outline>
</glyph>
<glyph name="nine" format="2">
  <advance width="5465.288288288288"/>
  <unicode hex="0039"/>
  <outline>
    <contour>
      <point x="5247.477477477478" y="1600.0" type="line" identifier="uiw6aBUf4P"/>
      <point x="217.8108108108108" y="1600.0" type="line" identifier="jtYkxiUX6G"/>
      <point x="217.8108108108108" y="626.2192192192192" type="line" identifier="2G5L37c87I"/>
      <point x="4414.180180180179" y="626.2192192192192" type="line"/>
      <point x="4414.180180180179" y="529.3413413413414" type="line"/>
      <point x="887.1441441441441" y="529.3413413413414" type="line"/>
      <point x="887.1441441441441" y="448.3503503503504" type="line"/>
      <point x="218.8108108108108" y="448.3503503503504" type="line" identifier="Wuidbv6mUe"/>
      <point x="218.8108108108108" y="0.0" type="line" identifier="oGvEEuxnYv"/>
      <point x="5247.477477477478" y="0.0" type="line" identifier="xR3pEHbMJx"/>
    </contour>
    <contour>
      <point x="1050.108108108108" y="959.3823823823823" type="line"/>
      <point x="1050.108108108108" y="1052.6606606606606" type="line"/>
      <point x="4414.180180180179" y="1052.6606606606606" type="line"/>
      <point x="4414.180180180179" y="959.3823823823823" type="line"/>
    </contour>
  </outline>
</glyph>
<glyph name="A" format="2">
  <advance width="5465.288288288288"/>
  <unicode hex="0041"/>
  <outline>
    <contour>
      <point x="217.8108108108108" y="0.0" type="line" smooth="yes" identifier="jFq8ta4UUc"/>
      <point x="1050.1081081081081" y="0.0" type="line" smooth="yes" identifier="dQz4RxYhG4"/>
      <point x="1050.1081081081081" y="356.24924924924926" type="line" smooth="yes" identifier="viYRWe5UN7"/>
      <point x="4414.18018018018" y="356.24924924924926" type="line" smooth="yes" identifier="QVexAlbAcl"/>
      <point x="4414.18018018018" y="0.0" type="line" smooth="yes" identifier="ZgsCdxNJRW"/>
      <point x="5247.477477477478" y="0.0" type="line" smooth="yes" identifier="kpn4Kw9J0C"/>
      <point x="5247.477477477478" y="1600.0" type="line" smooth="yes" identifier="OBZ5Ayed7M"/>
      <point x="725.8108108108108" y="1600.0" type="line" smooth="yes" identifier="iDT0uyhKrn"/>
      <point x="217.8108108108108" y="1102.0" type="line" smooth="yes" identifier="dqVr87m3uJ"/>
    </contour>
    <contour>
      <point x="1050.1081081081081" y="867.5925925925926" type="line" smooth="yes" identifier="IIRC9Wy7kQ"/>
      <point x="1050.1081081081081" y="843.7287287287287" type="line" smooth="yes" identifier="VufvPdJ075"/>
      <point x="1254.8418418418419" y="1025.6636636636636" type="line" smooth="yes" identifier="FsYtJ2vFnp"/>
      <point x="4414.18018018018" y="1025.6636636636636" type="line" smooth="yes" identifier="tUsW8L7b0y"/>
      <point x="4414.18018018018" y="867.5925925925926" type="line" smooth="yes" identifier="eTe9B4y76W"/>
    </contour>
  </outline>
</glyph>
<glyph name="C" format="2">
  <advance width="5580.443443443443"/>
  <unicode hex="0043"/>
  <outline>
    <contour>
      <point x="217.8108108108108" y="0.0" type="line" identifier="7lPhzTnk2Z"/>
      <point x="5158.649649649649" y="0.0" type="line" identifier="qJVLZGnkwh"/>
      <point x="5158.649649649649" y="583.3353353353353" type="line" identifier="nDnDHzAMXL"/>
      <point x="4326.1721721721715" y="583.3353353353353" type="line" identifier="QX1V08aTu0"/>
      <point x="4326.1721721721715" y="583.3353353353353" type="line" identifier="Y750RHTvDj"/>
      <point x="1050.108108108108" y="583.3353353353353" type="line" identifier="L2LsGnXiZ2"/>
      <point x="1051.008008008008" y="767.4374374374377" type="line" identifier="sUWsr03vF4"/>
      <point x="1312.4354354354355" y="1016.6646646646647" type="line" identifier="dbOUe6OhxL"/>
      <point x="4326.252252252251" y="1016.6646646646647" type="line" identifier="5BjRbcud80"/>
      <point x="4325.352352352352" y="895.1781781781782" type="line" identifier="fNVDqwQo2o"/>
      <point x="5157.649649649649" y="895.1781781781782" type="line" identifier="wLqQQx7QVN"/>
      <point x="5157.649649649649" y="1600.0" type="line" identifier="9eJelv8BOw"/>
      <point x="725.8108108108107" y="1600.0" type="line" identifier="lfZev3ICaC"/>
      <point x="217.8108108108108" y="1105.0" type="line" identifier="V1EWIdPahq"/>
    </contour>
  </outline>
</glyph>
<glyph name="D" format="2">
  <advance width="5468.288288288289"/>
  <unicode hex="0044"/>
  <outline>
    <contour>
      <point x="217.8108108108108" y="0.0" type="line" identifier="gh4oopoKIn"/>
      <point x="5250.477477477479" y="0.0" type="line" identifier="wIy2omw5Da"/>
      <point x="5250.477477477479" y="1125.3033033033032" type="line" identifier="ydeACnPZN4"/>
      <point x="4629.988988988989" y="1600.0" type="line" identifier="IF8msvcgce"/>
      <point x="217.8108108108108" y="1600.0" type="line" identifier="hTYdJwlqIh"/>
    </contour>
    <contour>
      <point x="1050.108108108108" y="1025.6636636636636" type="line" identifier="YShvMHvurg"/>
      <point x="4069.4614614614616" y="1025.6636636636636" type="line" identifier="DiLdvAK6bW"/>
      <point x="4418.18018018018" y="758.044044044044" type="line" identifier="5OFemp6E2Y"/>
      <point x="4418.18018018018" y="574.3363363363363" type="line" identifier="4w8cXO1HlF"/>
      <point x="1050.108108108108" y="574.3363363363363" type="line" identifier="OGdfzPVlic"/>
    </contour>
  </outline>
</glyph>
<glyph name="J" format="2">
  <advance width="4872.399399399399"/>
  <unicode hex="004A"/>
  <outline>
    <contour>
      <point x="313.7687687687688" y="0.0" type="line" identifier="jiO9eX9U07"/>
      <point x="4680.588588588588" y="0.0" type="line" identifier="wgpFs1yguc"/>
      <point x="4680.588588588588" y="1600.0" type="line" identifier="d5Di3vNzni"/>
      <point x="260.42942942942943" y="1600.0" type="line" identifier="TbrXnCyMEi"/>
      <point x="260.42942942942943" y="1035.7657657657658" type="line" identifier="AdYfGKx8QJ"/>
      <point x="3959.9579579579577" y="1035.7657657657658" type="line" identifier="46RrD1WET2"/>
      <point x="3959.9579579579577" y="483.45345345345345" type="line" identifier="zFXsE8BUYG"/>
      <point x="891.5165165165165" y="483.45345345345345" type="line" identifier="NQmE31PUns"/>
      <point x="773.7717717717718" y="794.7777777777778" type="line" identifier="qiXxY6YhCq"/>
      <point x="53.33333333333336" y="794.7777777777778" type="line" identifier="7exNZv1XSc"/>
    </contour>
  </outline>
</glyph>
<glyph name="K" format="2">
  <advance width="5249.399399399399"/>
  <unicode hex="004B"/>
  <outline>
    <contour>
      <point x="919.4414414414415" y="0.0" type="line" identifier="wmNm7XZsaF"/>
      <point x="920.2492492492493" y="530.8078078078078" type="line" identifier="O22liaP9Qk"/>
      <point x="4004.4624624624626" y="530.8078078078078" type="line" identifier="ELFBWIb1vd"/>
      <point x="4329.7657657657655" y="319.1861861861862" type="line" identifier="DzXo67YEfw"/>
      <point x="4328.957957957958" y="0.0" type="line" identifier="aKpYWD78l2"/>
      <point x="5048.87987987988" y="0.0" type="line" identifier="ChS7KlqGi6"/>
      <point x="5048.87987987988" y="552.7747747747748" type="line" identifier="sWLgkU8Vey"/>
      <point x="4667.588588588589" y="799.0" type="line" identifier="Of0iQc0wBG"/>
      <point x="4667.588588588589" y="801.0" type="line" identifier="j4jnmtDJYB"/>
      <point x="5045.87987987988" y="1032.2252252252251" type="line" identifier="dWvz0rZ5Hv"/>
      <point x="5045.87987987988" y="1600.0" type="line" identifier="dMJ1ywOKQQ"/>
      <point x="4325.957957957958" y="1600.0" type="line" identifier="08OWjR2YBJ"/>
      <point x="4325.957957957958" y="1265.813813813814" type="line" identifier="F62GU90G6q"/>
      <point x="4003.6546546546547" y="1069.1921921921921" type="line" identifier="g4YLdZEoM3"/>
      <point x="919.4414414414415" y="1069.1921921921921" type="line" identifier="uZuki3Isec"/>
      <point x="919.4414414414415" y="1600.0" type="line" identifier="nRfcNgqJ4H"/>
      <point x="199.8108108108108" y="1600.0" type="line" identifier="3XJlWt89ad"/>
      <point x="199.8108108108108" y="0.0" type="line" identifier="wdbO8kCovY"/>
    </contour>
  </outline>
</glyph>
<glyph name="L" format="2">
  <advance width="4170.6996996996995"/>
  <unicode hex="004C"/>
  <outline>
    <contour>
      <point x="191.81081081081084" y="0.0" type="line" identifier="XkJNfQlnnt"/>
      <point x="4093.6996996997" y="0.0" type="line" identifier="82EXZEgt46"/>
      <point x="4093.6996996997" y="317.42342342342346" type="line" identifier="VYRt9kHZtP"/>
      <point x="4092.6996996996995" y="317.42342342342346" type="line" identifier="t7Q9RRLHt8"/>
      <point x="4094.3153153153153" y="515.7657657657658" type="line" identifier="cqpSxwFiM3"/>
      <point x="912.2492492492493" y="515.7657657657658" type="line" identifier="MbxRZRd8vz"/>
      <point x="912.2492492492493" y="1600.0" type="line" identifier="lYiaKSKITt"/>
      <point x="191.81081081081084" y="1600.0" type="line" identifier="XFf4mMUzYo"/>
    </contour>
  </outline>
</glyph>
<glyph name="M" format="2">
  <advance width="5317.3993993994"/>
  <unicode hex="004D"/>
  <outline>
    <contour>
      <point x="2646.6996996996995" y="80.0" type="line" identifier="0Dn4Xpf57M"/>
      <point x="947.4414414414415" y="971.1411411411411" type="line"/>
      <point x="921.4414414414415" y="971.1411411411411" type="line"/>
      <point x="921.4414414414415" y="0.0" type="line"/>
      <point x="201.51951951951952" y="0.0" type="line"/>
      <point x="201.51951951951952" y="1600.0" type="line"/>
      <point x="947.4414414414415" y="1600.0" type="line"/>
      <point x="2647.6996996997" y="708.8588588588589" type="line"/>
      <point x="2669.6996996996995" y="708.8588588588589" type="line" identifier="9aKZPM0HPh"/>
      <point x="4369.957957957958" y="1600.0" type="line"/>
      <point x="5116.588588588588" y="1600.0" type="line"/>
      <point x="5116.588588588588" y="0.0" type="line"/>
      <point x="4395.957957957958" y="0.0" type="line"/>
      <point x="4395.957957957958" y="971.1411411411411" type="line"/>
      <point x="4370.957957957958" y="971.1411411411411" type="line"/>
      <point x="2670.6996996996995" y="80.0" type="line" identifier="spdoeeCFft"/>
    </contour>
  </outline>
</glyph>
<glyph name="N" format="2">
  <advance width="4438.150150150151"/>
  <unicode hex="004E"/>
  <outline>
    <contour>
      <point x="200.8108108108108" y="0.0" type="line" identifier="CkwYPPvJLv"/>
      <point x="920.4414414414414" y="0.0" type="line" identifier="oHTJsN7drZ"/>
      <point x="920.4414414414414" y="1035.7657657657658" type="line" identifier="wfBbYd10Pm"/>
      <point x="935.4414414414415" y="1035.7657657657658" type="line" identifier="MEnBDHq6zU"/>
      <point x="3498.7087087087084" y="0.0" type="line" identifier="3Nbopwznvn"/>
      <point x="4237.33933933934" y="0.0" type="line" identifier="uKfuudIUvA"/>
      <point x="4237.33933933934" y="1600.0" type="line" identifier="XRdLFXiM4t"/>
      <point x="3517.7087087087093" y="1600.0" type="line" identifier="MUSJPjCIXg"/>
      <point x="3517.7087087087093" y="564.2342342342342" type="line" identifier="VILP20cFmq"/>
      <point x="3499.7087087087084" y="564.2342342342342" type="line" identifier="z5b04GDwRN"/>
      <point x="935.4414414414414" y="1600.0" type="line" identifier="LL64NQ6WBE"/>
      <point x="200.8108108108108" y="1600.0" type="line" identifier="dzUaaP1sjt"/>
    </contour>
  </outline>
</glyph>
<glyph name="O" format="2">
  <advance width="5250.399399399399"/>
  <unicode hex="004F"/>
  <outline>
    <contour>
      <point x="5032.351351351351" y="489.4234234234234" type="line" identifier="ob8US3C311"/>
      <point x="5032.351351351351" y="1601.6156156156155" type="line" identifier="c9brEFyXXA"/>
      <point x="718.1801801801802" y="1600.0" type="line" identifier="a4Ql951bxG"/>
      <point x="220.4714714714715" y="1105.0" type="line" identifier="kbL68Qh2zr"/>
      <point x="220.4714714714715" y="0.0" type="line" identifier="U6WibAQAUl"/>
      <point x="4534.834834834835" y="1.6156156156156156" type="line" identifier="dfgNHTgBfR"/>
    </contour>
    <contour>
      <point x="4311.912912912913" y="922.6006006006006" type="line" identifier="SnrsQD5TLy"/>
      <point x="3964.5495495495497" y="564.2342342342342" type="line" identifier="jjd5iRDXWT"/>
      <point x="940.1021021021022" y="564.2342342342342" type="line" identifier="YbQKHpAtYn"/>
      <point x="940.1021021021022" y="671.8228228228228" type="line" identifier="vdfGLkskOQ"/>
      <point x="1313.5075075075076" y="1038.1891891891892" type="line" identifier="qXlVxK5ShE"/>
      <point x="4311.912912912913" y="1038.1891891891892" type="line" identifier="g70r2r6DwY"/>
    </contour>
  </outline>
</glyph>
<glyph name="P" format="2">
  <advance width="5244.3993993994"/>
  <unicode hex="0050"/>
  <outline>
    <contour>
      <point x="199.81081081081084" y="0.0" type="line" identifier="EG08jqU5fb"/>
      <point x="919.4414414414415" y="0.0" type="line" identifier="osRzIFK2Cu"/>
      <point x="919.4414414414415" y="308.08108108108104" type="line" identifier="hIFVovVRwe"/>
      <point x="4987.123123123124" y="449.6756756756756" type="line" identifier="Tt6D8zYZmU"/>
      <point x="4987.123123123124" y="1600.0" type="line" identifier="6xW04auDFu"/>
      <point x="199.81081081081084" y="1600.0" type="line" identifier="eETO5GBD5v"/>
    </contour>
    <contour>
      <point x="919.4414414414415" y="728.5255255255256" type="line" identifier="PIBVN1PGv1"/>
      <point x="919.4414414414415" y="1084.2342342342342" type="line" identifier="IZIZQr2gYJ"/>
      <point x="4266.492492492493" y="1084.2342342342342" type="line" identifier="2c4LCF1E1R"/>
      <point x="4266.492492492493" y="825.7897897897898" type="line" identifier="1WCnzth1GX"/>
    </contour>
  </outline>
</glyph>
<glyph name="Q" format="2">
  <advance width="5467.288288288288"/>
  <unicode hex="0051"/>
  <outline>
    <contour>
      <point x="5220.688688688689" y="1601.7997997997998" type="line" identifier="c9brEFyXXA"/>
      <point x="744.4194194194195" y="1601.7997997997998" type="line" identifier="a4Ql951bxG"/>
      <point x="246.59959959959957" y="1120.0140140140138" type="line" identifier="kbL68Qh2zr"/>
      <point x="246.59959959959957" y="1.7997997997997999" type="line" identifier="U6WibAQAUl"/>
      <point x="5220.688688688689" y="1.7997997997997999" type="line" identifier="dfgNHTgBfR"/>
    </contour>
    <contour>
      <point x="4388.391391391391" y="576.1361361361362" type="line" identifier="jjd5iRDXWT"/>
      <point x="1078.8968968968968" y="576.1361361361362" type="line" identifier="YbQKHpAtYn"/>
      <point x="1078.8968968968968" y="720.4584584584584" type="line" identifier="vdfGLkskOQ"/>
      <point x="1352.0020020020022" y="1027.4634634634635" type="line" identifier="qXlVxK5ShE"/>
      <point x="4388.391391391391" y="1027.4634634634635" type="line" identifier="g70r2r6DwY"/>
    </contour>
    <contour>
      <point x="2387.9609609609606" y="-437.1751751751752" type="line"/>
      <point x="3139.276276276276" y="-437.1751751751752" type="line"/>
      <point x="3139.276276276276" y="2.0" type="line"/>
      <point x="2387.9609609609606" y="2.0" type="line"/>
    </contour>
  </outline>
</glyph>
<glyph name="R" format="2">
  <advance width="5466.288288288288"/>
  <unicode hex="0052"/>
  <outline>
    <contour>
      <point x="1080.6966966966966" y="885.5905905905905" type="line"/>
      <point x="1078.8968968968968" y="1025.6636636636636" type="line"/>
      <point x="4383.391391391391" y="1025.6636636636636" type="line"/>
      <point x="4384.291291291291" y="1115.015015015015" type="line"/>
      <point x="4017.291291291291" y="885.5905905905905" type="line"/>
    </contour>
    <contour>
      <point x="5218.86886886887" y="0.0" type="line"/>
      <point x="5219.768768768769" y="426.6106106106106" type="line"/>
      <point x="4851.488488488489" y="660.5955955955956" type="line"/>
      <point x="4851.488488488489" y="662.5955955955956" type="line"/>
      <point x="5216.7687687687685" y="890.1201201201201" type="line"/>
      <point x="5215.868868868869" y="1600.0" type="line"/>
      <point x="246.5995995995996" y="1600.0" type="line"/>
      <point x="246.5995995995996" y="0.0" type="line"/>
      <point x="1079.7967967967966" y="0.0" type="line"/>
      <point x="1079.7967967967966" y="404.84384384384384" type="line"/>
      <point x="4017.471471471471" y="404.84384384384384" type="line"/>
      <point x="4386.391391391391" y="162.8398398398398" type="line"/>
      <point x="4386.391391391391" y="0.0" type="line"/>
    </contour>
  </outline>
</glyph>
<glyph name="S" format="2">
  <advance width="5131.36036036036"/>
  <unicode hex="0053"/>
  <outline>
    <contour>
      <point x="248.4194194194194" y="0.0" type="line" identifier="09VlJ0BjUX"/>
      <point x="4884.760760760761" y="0.0" type="line" identifier="EagWihqFM8"/>
      <point x="4884.760760760761" y="963.025025025025" type="line" identifier="KfNuQA7eZe"/>
      <point x="1103.4154154154153" y="963.025025025025" type="line" identifier="At364YZFEy"/>
      <point x="1103.4154154154153" y="1061.6596596596596" type="line" identifier="BcuLfvaQKC"/>
      <point x="4216.427427427427" y="1061.6596596596596" type="line" identifier="3ZUkG35meB"/>
      <point x="4216.427427427427" y="1151.6496496496497" type="line" identifier="DTOJhFIl15"/>
      <point x="4874.103103103103" y="1151.6496496496497" type="line" identifier="9KDcrfQ5Ui"/>
      <point x="4874.103103103103" y="1600.0" type="line" identifier="SaF9ojRFrW"/>
      <point x="269.39839839839834" y="1600.0" type="line" identifier="F4sQEYelA8"/>
      <point x="269.39839839839834" y="630.8618618618619" type="line" identifier="3sQ8t8BZ6b"/>
      <point x="4052.463463463463" y="630.8618618618618" type="line" identifier="yiV6OCBLHg"/>
      <point x="4052.463463463463" y="538.3403403403404" type="line" identifier="9kdl9SYsn8"/>
      <point x="916.9329329329328" y="538.3403403403404" type="line" identifier="yZDWuX8LLe"/>
      <point x="916.9329329329328" y="448.3503503503504" type="line" identifier="jYb9001DTm"/>
      <point x="248.4194194194194" y="448.3503503503504" type="line" identifier="ho4DrS0rdW"/>
    </contour>
  </outline>
</glyph>
<glyph name="U" format="2">
  <advance width="5465.288288288288"/>
  <unicode hex="0055"/>
  <outline>
    <contour>
      <point x="4414.18018018018" y="1600.0" type="line" smooth="yes"/>
      <point x="4414.18018018018" y="574.3363363363363" type="line"/>
      <point x="1356.5305305305305" y="574.3363363363363" type="line" smooth="yes"/>
      <point x="1050.1081081081081" y="854.3603603603603" type="line" smooth="yes"/>
      <point x="1050.1081081081081" y="1600.0" type="line"/>
      <point x="217.8108108108108" y="1600.0" type="line" smooth="yes"/>
      <point x="217.8108108108108" y="497.99999999999994" type="line" smooth="yes"/>
      <point x="725.8108108108108" y="0.0" type="line" smooth="yes"/>
      <point x="5247.477477477477" y="0.0" type="line" smooth="yes"/>
      <point x="5247.477477477477" y="1600.0" type="line" smooth="yes"/>
    </contour>
  </outline>
</glyph>
<glyph name="V" format="2">
  <advance width="5465.288288288288"/>
  <unicode hex="0056"/>
  <outline>
    <contour>
      <point x="1050.1081081081081" y="1600.0" type="line" smooth="yes"/>
      <point x="1050.1081081081081" y="574.3363363363363" type="line"/>
      <point x="4051.883883883884" y="574.3363363363363" type="line" smooth="yes"/>
      <point x="4414.18018018018" y="928.072072072072" type="line" smooth="yes"/>
      <point x="4414.18018018018" y="1600.0" type="line"/>
      <point x="5247.477477477477" y="1600.0" type="line" smooth="yes"/>
      <point x="5247.477477477477" y="497.99999999999994" type="line" smooth="yes"/>
      <point x="4739.477477477477" y="0.0" type="line" smooth="yes"/>
      <point x="217.8108108108108" y="0.0" type="line" smooth="yes"/>
      <point x="217.8108108108108" y="1600.0" type="line" smooth="yes"/>
    </contour>
  </outline>
</glyph>
<glyph name="W" format="2">
  <advance width="7869.4324324324325"/>
  <unicode hex="0057"/>
  <outline>
    <contour>
      <point x="6382.4324324324325" y="1600.0" type="line" smooth="yes" identifier="12Pyby1xY2"/>
      <point x="6382.4324324324325" y="574.3363363363363" type="line" identifier="iqeTRv7HXg"/>
      <point x="4562.7647647647655" y="574.3363363363363" type="line" identifier="GlWB6PG54Z"/>
      <point x="4350.944944944944" y="870.7367367367367" type="line"/>
      <point x="4350.944944944944" y="1487.2862862862864" type="line"/>
      <point x="4349.145145145145" y="1600.0" type="line"/>
      <point x="3518.4674674674675" y="1002.4664664664665" type="line" smooth="yes"/>
      <point x="3518.4674674674675" y="870.3363363363362" type="line"/>
      <point x="3350.4674674674675" y="574.3363363363363" type="line" identifier="Ljn2lpvpG8"/>
      <point x="1777.3843843843842" y="574.3363363363363" type="line" smooth="yes" identifier="oee4nqI8Wl"/>
      <point x="1485.3603603603603" y="843.5615615615616" type="line" smooth="yes" identifier="WWvGwSpq0g"/>
      <point x="1485.3603603603603" y="1600.0" type="line" identifier="JfSFAkWGZC"/>
      <point x="652.8828828828829" y="1600.0" type="line" smooth="yes" identifier="RTOJW56qXy"/>
      <point x="652.8828828828829" y="497.99999999999994" type="line" smooth="yes" identifier="7g7f8Wu7K4"/>
      <point x="1160.882882882883" y="0.0" type="line" smooth="yes" identifier="R4lklfJsHA"/>
      <point x="3904.126126126126" y="0.0" type="line" smooth="yes" identifier="Pkl7cZ37MU"/>
      <point x="3934.3963963963965" y="298.0" type="line"/>
      <point x="3935.3963963963965" y="298.0" type="line"/>
      <point x="4145.396396396397" y="0.0" type="line" smooth="yes" identifier="rCeQLyjlsN"/>
      <point x="7215.72972972973" y="0.0" type="line" smooth="yes" identifier="ZqTZqAY3uY"/>
      <point x="7215.72972972973" y="1600.0" type="line" smooth="yes" identifier="5LJg4ajoG6"/>
    </contour>
  </outline>
</glyph>
<glyph name="X" format="2">
  <advance width="5261.399399399399"/>
  <unicode hex="0058"/>
  <outline>
    <contour>
      <point x="3956.5345345345345" y="537.2702702702702" type="line"/>
      <point x="4338.534534534534" y="290.045045045045" type="line"/>
      <point x="4338.534534534534" y="0.0" type="line"/>
      <point x="5058.456456456456" y="0.0" type="line"/>
      <point x="5058.456456456456" y="552.7747747747748" type="line"/>
      <point x="4677.9729729729725" y="799.0" type="line"/>
      <point x="4677.9729729729725" y="801.0" type="line"/>
      <point x="5055.456456456456" y="1032.2252252252251" type="line"/>
      <point x="5055.456456456456" y="1600.0" type="line"/>
      <point x="4335.534534534535" y="1600.0" type="line"/>
      <point x="4335.534534534535" y="1294.954954954955" type="line"/>
      <point x="3956.5345345345345" y="1062.7297297297298" type="line"/>
      <point x="1301.018018018018" y="1062.7297297297298" type="line"/>
      <point x="921.8258258258259" y="1294.954954954955" type="line"/>
      <point x="921.8258258258259" y="1600.0" type="line"/>
      <point x="201.3873873873874" y="1600.0" type="line"/>
      <point x="201.3873873873874" y="1032.2252252252251" type="line"/>
      <point x="580.9039039039038" y="801.0" type="line"/>
      <point x="580.9039039039038" y="799.0" type="line"/>
      <point x="198.3873873873874" y="552.7747747747748" type="line"/>
      <point x="198.3873873873874" y="0.0" type="line"/>
      <point x="918.8258258258259" y="0.0" type="line"/>
      <point x="918.8258258258259" y="290.045045045045" type="line"/>
      <point x="1301.018018018018" y="537.2702702702702" type="line"/>
    </contour>
  </outline>
</glyph>
<glyph name="Y" format="2">
  <advance width="5464.288288288289"/>
  <unicode hex="0059"/>
  <outline>
    <contour>
      <point x="2316.4954954954956" y="1.4394394394394394" type="line" identifier="XKjckKJ7m9"/>
      <point x="3148.9729729729734" y="0.0" type="line" identifier="WihjL321cU"/>
      <point x="3148.9729729729734" y="559.4104104104103" type="line" identifier="rvzWMWl6O1"/>
      <point x="5246.477477477477" y="748.6216216216216" type="line" identifier="YbKEFhFR3q"/>
      <point x="5246.477477477477" y="1576.968968968969" type="line" identifier="wnC8PudY2b"/>
      <point x="4413.28028028028" y="1576.968968968969" type="line" identifier="spI4xe8t4f"/>
      <point x="4413.28028028028" y="1199.3203203203202" type="line" identifier="Jw55i2s2Mm"/>
      <point x="2870.234234234234" y="1062.6776776776776" type="line" identifier="9ncbEH2hEb"/>
      <point x="2595.234234234234" y="1062.6776776776776" type="line" identifier="u7HFbTQwMo"/>
      <point x="1051.008008008008" y="1199.3203203203202" type="line" identifier="oy8ifCCtGL"/>
      <point x="1051.008008008008" y="1576.968968968969" type="line" identifier="ah5yat5gKV"/>
      <point x="217.81081081081084" y="1576.968968968969" type="line" identifier="fJXhpKV79E"/>
      <point x="217.81081081081084" y="748.6216216216216" type="line" identifier="k3vH9oxqcN"/>
      <point x="2316.4954954954956" y="559.4104104104103" type="line" identifier="3Kveia3O9h"/>
    </contour>
  </outline>
</glyph>
<glyph name="Z" format="2">
  <advance width="5466.288288288288"/>
  <unicode hex="005A"/>
  <outline>
    <contour>
      <point x="217.8108108108108" y="0.0" type="line"/>
      <point x="5248.657657657658" y="0.0" type="line" identifier="pzdvPTirLJ"/>
      <point x="5248.657657657658" y="437.6236236236237" type="line" identifier="91SxUS0iwG"/>
      <point x="4580.144144144144" y="437.6236236236237" type="line"/>
      <point x="4580.144144144144" y="574.3363363363363" type="line"/>
      <point x="1623.9819819819818" y="574.3363363363363" type="line"/>
      <point x="1623.9819819819818" y="629.7957957957958" type="line"/>
      <point x="5243.477477477478" y="873.4714714714715" type="line" identifier="yyb1NCCI5w"/>
      <point x="5243.477477477478" y="1600.0" type="line" identifier="5FogYRSgkk"/>
      <point x="220.8108108108108" y="1600.0" type="line" identifier="svlFvrau4c"/>
      <point x="220.8108108108108" y="1171.7357357357357" type="line" identifier="LQ9fBsTy9K"/>
      <point x="890.1441441441441" y="1171.7357357357357" type="line"/>
      <point x="890.1441441441441" y="1025.6636636636636" type="line"/>
      <point x="3796.9549549549547" y="1025.6636636636636" type="line"/>
      <point x="3796.9549549549547" y="965.3913913913914" type="line"/>
      <point x="217.8108108108108" y="747.94994994995" type="line" identifier="teVKnpBcVb"/>
    </contour>
  </outline>
</glyph>
<glyph name="S.alt" format="2">
  <advance width="152.6786786786787"/>
  <outline>
    <contour>
      <point x="19.834834834834837" y="0.0" type="line" identifier="09VlJ0BjUX"/>
      <point x="123.42642642642643" y="0.0" type="line" identifier="EagWihqFM8"/>
      <point x="123.42642642642643" y="962.5615615615616" type="line" identifier="KfNuQA7eZe"/>
      <point x="19.834834834834837" y="962.5615615615616" type="line" identifier="At364YZFEy"/>
      <point x="19.834834834834837" y="1133.4384384384384" type="line"/>
      <point x="37.033033033033036" y="1226.4084084084084" type="line"/>
      <point x="121.42642642642643" y="1226.4084084084084" type="line" identifier="3ZUkG35meB"/>
      <point x="121.42642642642643" y="1117.6576576576576" type="line" identifier="DTOJhFIl15"/>
      <point x="123.42642642642643" y="1117.6576576576576" type="line" identifier="9KDcrfQ5Ui"/>
      <point x="123.42642642642643" y="1600.0" type="line" identifier="SaF9ojRFrW"/>
      <point x="64.92192192192192" y="1600.0" type="line"/>
      <point x="17.834834834834837" y="1133.4384384384384" type="line"/>
      <point x="17.834834834834837" y="637.4384384384384" type="line" identifier="3sQ8t8BZ6b"/>
      <point x="121.42642642642643" y="637.4384384384384" type="line" identifier="yiV6OCBLHg"/>
      <point x="121.42642642642643" y="373.59159159159157" type="line" identifier="9kdl9SYsn8"/>
      <point x="21.543543543543542" y="373.59159159159157" type="line" identifier="yZDWuX8LLe"/>
      <point x="21.543543543543542" y="419.9099099099099" type="line" identifier="jYb9001DTm"/>
      <point x="19.834834834834837" y="419.9099099099099" type="line" identifier="ho4DrS0rdW"/>
    </contour>
  </outline>
</glyph>
